<?xml version="1.0" standalone="no"?>
<!DOCTYPE svg PUBLIC "-//W3C//DTD SVG 20010904//EN"
 "https://www.w3.org/TR/2001/REC-SVG-20010904/DTD/svg10.dtd">
<svg version="1.0" xmlns="https://www.w3.org/2000/svg"
 width="406.000000pt" height="362.000000pt" viewBox="0 0 406.000000 362.000000"
 preserveAspectRatio="xMidYMid meet">
<g transform="translate(0.000000,362.000000) scale(0.100000,-0.100000)"
fill="#000000" stroke="none">
<path d="M805 3012 c-71 -46 -100 -108 -93 -201 9 -115 73 -181 174 -181 109
1 174 77 174 204 0 79 -23 133 -73 170 -40 29 -141 34 -182 8z m157 -61 c28
-25 32 -35 36 -94 7 -115 -31 -177 -110 -177 -75 0 -113 50 -113 150 0 101 38
149 117 150 28 0 46 -8 70 -29z"/>
<path d="M1277 3006 c-33 -23 -35 -23 -40 -5 -4 15 -14 19 -54 19 -27 0 -54
-5 -60 -11 -19 -19 -3 -39 32 -39 30 0 33 -3 39 -37 7 -47 6 -178 -3 -218 -5
-24 -12 -30 -32 -31 -35 -1 -49 -11 -42 -29 4 -12 26 -15 104 -15 92 0 99 1
99 20 0 11 -6 21 -12 22 -7 0 -17 2 -23 2 -30 4 -35 20 -35 104 0 146 24 192
100 192 70 0 75 -11 75 -162 l0 -133 -28 -1 c-33 -1 -41 -8 -34 -29 5 -12 25
-15 97 -15 72 0 92 3 97 15 7 19 -1 28 -25 30 -38 2 -42 14 -42 114 0 106 12
156 40 171 30 16 86 11 111 -9 22 -18 24 -27 27 -136 4 -117 -5 -152 -33 -141
-19 7 -39 -10 -32 -28 5 -13 33 -16 206 -16 126 0 202 4 206 11 10 15 -13 37
-41 41 -24 3 -24 4 19 53 l45 50 40 -45 c44 -48 53 -71 25 -64 -25 6 -47 -11
-40 -30 5 -13 24 -16 107 -16 99 0 101 0 98 23 -2 17 -11 23 -35 25 -25 3 -45
18 -92 71 -34 38 -61 73 -61 77 0 5 25 37 56 72 51 56 59 62 95 62 36 0 40 2
37 23 -3 21 -8 22 -95 24 -68 1 -95 -2 -103 -12 -15 -18 -5 -35 21 -35 10 0
19 -3 19 -7 -1 -10 -71 -86 -75 -81 -2 2 -18 21 -35 43 l-32 40 24 5 c14 4 23
13 23 25 0 18 -7 20 -95 20 -91 0 -95 -1 -98 -22 -3 -20 1 -23 31 -23 31 0 43
-8 92 -65 65 -73 67 -58 -20 -157 -38 -44 -56 -58 -77 -58 -15 0 -30 -5 -33
-10 -4 -6 -12 -7 -22 -1 -9 4 -24 6 -34 4 -26 -7 -28 4 -32 143 -5 132 -15
162 -68 190 -44 22 -119 18 -159 -9 l-34 -24 -34 24 c-47 31 -108 31 -155 -1z"/>
<path d="M2500 3023 c-8 -3 -25 -14 -37 -25 -21 -20 -21 -20 -28 1 -5 18 -14
21 -65 21 -61 0 -74 -7 -64 -34 4 -10 18 -16 39 -16 l33 0 7 -65 c4 -36 3
-100 -1 -143 -9 -73 -10 -77 -34 -77 -33 0 -50 -12 -43 -31 4 -12 24 -14 107
-12 93 3 101 5 101 23 0 15 -7 20 -28 20 -38 0 -47 19 -47 105 1 96 13 150 41
173 29 23 100 23 130 -2 22 -18 24 -28 27 -129 4 -118 -6 -157 -36 -148 -24 8
-46 -9 -39 -28 5 -13 24 -16 102 -16 78 0 97 3 102 16 7 19 -15 36 -39 28 -28
-8 -38 35 -38 160 0 106 -1 115 -25 140 -13 14 -36 31 -50 36 -28 11 -90 12
-115 3z"/>
<path d="M3400 3023 c-8 -3 -25 -14 -37 -25 -21 -20 -21 -20 -28 1 -5 18 -14
21 -65 21 -61 0 -74 -7 -64 -34 4 -10 18 -16 39 -16 l33 0 7 -65 c4 -36 3
-100 -1 -143 -9 -73 -10 -77 -34 -77 -33 0 -50 -12 -43 -31 4 -12 24 -14 107
-12 93 3 101 5 101 23 0 15 -7 20 -28 20 -38 0 -47 19 -47 105 1 96 13 150 41
173 29 23 100 23 130 -2 22 -18 24 -28 27 -129 4 -118 -6 -157 -36 -148 -24 8
-46 -9 -39 -28 5 -13 24 -16 102 -16 78 0 97 3 102 16 7 19 -15 36 -39 28 -28
-8 -38 35 -38 160 0 106 -1 115 -25 140 -13 14 -36 31 -50 36 -28 11 -90 12
-115 3z"/>
<path d="M63 3003 c-8 -19 6 -31 41 -35 30 -3 30 -5 70 -154 42 -155 56 -184
86 -184 28 0 47 31 64 108 40 179 48 213 51 210 2 -2 16 -62 30 -133 32 -152
46 -185 79 -185 34 0 41 13 76 140 49 183 57 200 90 200 30 0 46 23 27 38 -14
11 -187 11 -204 -1 -22 -14 -2 -37 32 -37 19 0 37 -4 40 -10 6 -9 -54 -275
-60 -268 -1 2 -15 64 -30 138 -33 159 -46 190 -80 190 -34 0 -47 -30 -80 -188
-16 -73 -32 -129 -36 -125 -12 13 -61 241 -54 253 3 5 21 10 40 10 34 0 54 23
32 37 -7 4 -56 8 -110 9 -76 0 -100 -3 -104 -13z"/>
<path d="M2983 3009 c-19 -19 -3 -39 32 -39 28 0 33 -4 39 -31 8 -41 6 -197
-3 -229 -6 -19 -13 -24 -31 -22 -28 3 -51 -15 -43 -34 8 -22 201 -20 210 2 7
19 -15 36 -39 28 -31 -10 -40 30 -37 175 2 75 -1 142 -5 149 -9 15 -108 16
-123 1z"/>
<path d="M1532 2154 c-7 -13 -13 -14 -30 -5 -30 16 -108 14 -142 -4 -16 -8
-36 -25 -44 -37 -18 -25 -21 -90 -6 -117 12 -23 70 -47 137 -56 64 -8 86 -23
86 -60 0 -46 -36 -68 -100 -63 -63 5 -103 36 -103 79 0 32 -15 46 -33 31 -16
-14 -15 -148 2 -165 10 -10 16 -8 30 9 16 20 19 20 46 7 39 -21 137 -13 173
14 39 29 56 85 38 128 -17 41 -50 59 -135 73 -35 6 -69 17 -77 23 -22 18 -17
66 8 83 46 33 138 10 138 -34 0 -32 11 -50 31 -50 18 0 20 7 17 77 -3 76 -16
102 -36 67z"/>
<path d="M247 2136 c-33 -23 -35 -23 -40 -5 -4 15 -14 19 -54 19 -27 0 -54 -5
-60 -11 -19 -19 -3 -39 32 -39 30 0 33 -3 39 -37 7 -47 6 -178 -3 -218 -5 -24
-12 -30 -32 -31 -35 -1 -49 -11 -42 -29 4 -12 26 -15 104 -15 92 0 99 1 99 20
0 11 -6 21 -12 22 -7 0 -17 2 -23 2 -30 4 -35 20 -35 104 0 146 24 192 100
192 70 0 75 -11 75 -162 l0 -133 -28 -1 c-33 -1 -41 -8 -34 -29 9 -22 185 -22
194 0 7 19 -1 28 -25 30 -38 2 -42 14 -42 114 0 106 12 156 40 171 30 16 86
11 111 -9 22 -18 24 -27 27 -136 4 -117 -5 -152 -33 -141 -19 7 -39 -10 -32
-28 5 -13 24 -16 102 -16 88 0 95 1 95 20 0 20 -9 24 -43 21 -24 -3 -26 8 -30
145 -5 132 -15 162 -68 190 -44 22 -119 18 -159 -9 l-34 -24 -34 24 c-47 31
-108 31 -155 -1z"/>
<path d="M1995 2146 c-69 -31 -111 -116 -103 -211 9 -107 64 -167 158 -173 69
-4 116 19 148 74 28 49 26 79 -7 79 -19 0 -27 -8 -36 -34 -29 -87 -142 -97
-183 -16 -33 67 -20 168 28 217 37 37 99 39 130 6 l21 -23 -20 -14 c-26 -17
-27 -47 -2 -61 28 -14 38 -13 61 10 31 31 26 74 -14 117 -30 33 -39 37 -92 40
-36 2 -71 -2 -89 -11z"/>
<path d="M784 2135 c-9 -22 4 -35 35 -35 35 0 41 -22 41 -156 0 -110 9 -137
52 -165 47 -29 147 -23 183 11 l25 23 0 -21 c0 -20 5 -22 59 -22 42 0 60 4 64
14 7 18 -18 40 -37 33 -29 -11 -35 20 -38 174 l-3 154 -55 0 c-49 0 -55 -2
-58 -22 -3 -17 2 -22 25 -25 l28 -3 3 -113 3 -113 -30 -29 c-35 -36 -95 -41
-131 -12 -29 24 -42 98 -34 194 4 42 4 88 0 102 -6 24 -10 26 -67 26 -43 0
-61 -4 -65 -15z"/>
<path d="M1643 2139 c-19 -19 -3 -39 32 -39 28 0 33 -4 39 -31 8 -41 6 -197
-3 -229 -6 -19 -13 -24 -31 -22 -28 3 -51 -15 -43 -34 8 -22 201 -20 210 2 7
19 -15 36 -39 28 -31 -10 -40 30 -37 175 2 75 -1 142 -5 149 -9 15 -108 16
-123 1z"/>
</g>
</svg>
