<?xml version="1.0" encoding="UTF-8"?> <svg xmlns="http://www.w3.org/2000/svg" width="514" height="514" viewBox="0 0 514 514" fill="none"><g clip-path="url(#clip0)"><path d="M361.206 342.775C363.455 348.909 365.544 354.184 367.633 359.581C367.753 359.887 367.829 360.207 367.858 360.532C367.44 365.838 368.468 371.082 368.276 376.326C367.95 378.712 366.975 380.974 365.447 382.889C362.234 387.55 362.234 389.39 365.447 393.868C366.323 394.837 367.128 395.862 367.858 396.935C369.165 398.942 369.857 401.257 369.857 403.62C369.857 405.983 369.165 408.299 367.858 410.306C362.716 418.525 354.425 422.144 345.363 424.107C334.916 426.451 324.351 428.294 313.71 429.627C304.423 430.7 295.039 430.669 286.588 425.333C282.921 423.287 279.133 421.444 275.244 419.813C273.335 419.103 271.522 418.176 269.845 417.053C264.651 413.368 258.775 410.653 252.525 409.049C246.872 407.201 241.582 404.465 236.875 400.952C230.062 395.8 223.314 390.587 216.565 385.373C204.937 376.883 197.145 364.476 194.778 350.688C194.532 349.487 194.221 348.3 193.846 347.13C190.15 347.621 186.615 347.958 183.145 348.572C174.527 350.07 165.632 348.695 157.951 344.677C153.323 342.377 152.07 337.991 153.612 331.98C154.347 329.992 155.272 328.072 156.376 326.245C156.905 325.378 157.172 324.387 157.146 323.383C157.121 322.379 156.804 321.402 156.231 320.56C155.658 319.718 154.852 319.044 153.902 318.613C152.952 318.182 151.895 318.011 150.849 318.118C148.307 318.352 145.753 318.434 143.201 318.364C141.54 318.365 139.943 317.753 138.745 316.655C137.546 315.557 136.84 314.059 136.774 312.476C136.348 308.989 135.715 305.528 134.878 302.11C134.316 299.313 134.533 296.424 135.509 293.733C136.485 291.042 138.184 288.643 140.437 286.776C143.334 284.008 145.618 280.712 147.153 277.085C147.459 276.639 147.656 276.134 147.729 275.606C147.803 275.078 147.751 274.542 147.579 274.036C147.406 273.529 147.116 273.066 146.731 272.681C146.346 272.296 145.875 271.998 145.354 271.81C137.191 268.253 137.191 259.819 140.855 253.9C142.226 251.839 143.419 249.675 144.422 247.429C145.569 244.911 146.369 242.262 146.8 239.547C147.147 237.923 146.818 236.233 145.882 234.836C144.946 233.439 143.477 232.445 141.787 232.064C139.248 231.144 136.645 230.316 134.042 229.611C132.775 229.352 131.638 228.689 130.82 227.729C130.002 226.77 129.551 225.573 129.543 224.336C128.451 210.167 128.451 196.091 134.942 182.812C135.52 181.646 136.067 180.45 136.581 179.254C142.333 165.576 153.355 158.431 168.202 156.192C180.647 153.881 193.503 154.608 205.575 158.308C209.245 159.553 212.741 161.222 215.987 163.276C221.643 166.803 227.073 170.698 233.083 174.746L250.371 160.026C249.922 156.959 249.375 154.198 249.086 151.316C247.286 133.467 254.774 114.668 276.176 105.314C283.931 101.695 292.362 99.5843 300.98 99.1051C309.597 98.626 318.229 99.7879 326.371 102.523C342.182 107.859 353.782 117.704 357.51 133.988C360.762 146.4 359.043 159.524 352.69 170.79C352.272 171.495 351.983 172.231 351.405 173.366C352.722 174.715 354.072 176.126 355.518 177.445C364.662 185.973 372.768 195.458 379.683 205.721C385.711 214.211 389.846 223.794 391.831 233.874C393.398 242.035 392.969 250.431 390.577 258.408C386.387 271.25 380.639 283.58 373.449 295.148C371.585 298.215 370.236 301.558 368.404 304.686C367.756 305.832 367.474 307.134 367.594 308.432C367.714 309.729 368.23 310.965 369.079 311.985C371.714 315.788 374.317 319.621 376.631 323.577C380.873 330.845 378.977 335.845 370.943 339.156C367.568 340.414 364.226 341.61 361.206 342.775ZM303.362 228.875L304.037 230.194C305.355 230.194 306.64 229.979 307.925 229.795C311.653 229.365 315.349 228.691 319.077 228.476C320.789 228.336 322.5 228.763 323.922 229.684C325.344 230.605 326.39 231.966 326.885 233.536C327.347 235.049 327.18 236.673 326.42 238.072C325.66 239.471 324.366 240.537 322.804 241.05C320.52 242.041 318.094 242.702 315.606 243.013C312.167 243.473 308.633 243.534 305.13 243.779C305.388 244.124 305.724 244.408 306.114 244.609C306.504 244.811 306.936 244.926 307.379 244.945C311.268 245.251 315.221 245.282 319.044 245.926C322.869 246.57 323.993 248.226 324.122 250.588C324.122 253.44 322.097 254.513 319.848 255.433C313.678 257.917 307.476 256.691 301.338 255.219C300.931 255.112 300.555 254.918 300.238 254.652C299.92 254.387 299.67 254.056 299.506 253.685C298.767 251.262 296.71 251.262 294.718 250.833C292.077 250.303 289.51 249.48 287.07 248.38C286.039 247.947 285.194 247.191 284.674 246.237C284.154 245.284 283.99 244.19 284.21 243.135C284.348 242.153 284.803 241.236 285.511 240.511C286.219 239.785 287.145 239.288 288.162 239.087C290.444 238.474 292.822 238.259 295.136 237.799C296.317 237.48 297.476 237.091 298.606 236.634C291.987 234.917 285.077 235.898 281.864 228.63C278.49 230.96 275.437 232.892 272.48 235.07C270.231 236.757 268.271 238.842 266.053 240.559C264.997 241.373 264.144 242.4 263.555 243.567C262.966 244.734 262.656 246.011 262.647 247.306C262.294 251.968 261.522 256.507 261.137 261.321C260.88 264.664 260.944 268.068 260.944 271.442C261.152 274.331 261.152 277.231 260.944 280.121C260.205 285.089 258.566 289.935 257.891 294.903C256.566 304.932 252.35 314.412 245.712 322.289C245.101 323.025 244.619 323.822 244.202 324.436C244.483 325.142 244.908 325.788 245.451 326.336C245.995 326.885 246.647 327.326 247.369 327.634C248.092 327.941 248.871 328.11 249.662 328.13C250.453 328.149 251.24 328.02 251.978 327.748C257.482 326.591 263.24 327.515 268.046 330.324C269.828 331.265 271.358 332.587 272.513 334.188C273.252 335.047 273.733 336.081 273.904 337.18C274.075 338.279 273.93 339.402 273.484 340.429C273.039 341.455 272.31 342.347 271.375 343.009C270.439 343.67 269.333 344.077 268.174 344.186C266.352 344.637 264.452 344.722 262.594 344.437C260.736 344.152 258.959 343.503 257.377 342.53C253.617 340.076 249.954 337.562 245.744 334.74C244.321 336.064 242.76 337.247 241.084 338.267C239.401 339.141 238.054 340.504 237.239 342.159C236.424 343.814 236.184 345.673 236.553 347.468C236.971 354.92 237.067 362.433 238.257 369.763C239.253 376.619 241.67 383.217 245.367 389.172C249.063 395.127 253.966 400.32 259.787 404.449C267.138 410.044 275.789 413.872 285.013 415.611C297.867 417.789 310.432 421.745 323.575 421.745C333.275 422.26 342.979 420.807 352.047 417.482C354.502 416.562 356.741 415.186 358.633 413.432C360.525 411.679 362.033 409.584 363.07 407.27C364.031 405.738 364.421 403.94 364.176 402.169C363.931 400.398 363.065 398.759 361.72 397.517C360.271 396.126 359.183 394.431 358.541 392.568C357.9 390.705 357.723 388.724 358.024 386.784C358.024 385.894 358.185 384.974 358.249 384.484C352.754 382.552 347.645 380.865 342.599 378.964C339.644 377.679 336.38 377.182 333.152 377.522C331.821 377.829 330.433 377.829 329.103 377.522C328.522 377.283 327.997 376.934 327.561 376.497C327.125 376.059 326.785 375.542 326.564 374.976C326.146 373.535 327.335 372.615 328.91 372.431C330.083 372.204 331.285 372.142 332.477 372.247C334.301 372.721 336.244 372.527 337.927 371.705C339.609 370.882 340.909 369.49 341.571 367.8C342.794 365.448 344.727 363.498 347.121 362.203C349.515 360.908 352.26 360.326 355.004 360.532C357.634 360.814 360.236 361.307 362.78 362.004C361.526 356.948 359.581 352.071 356.996 347.498C356.784 347.046 356.472 346.643 356.08 346.318C355.688 345.993 355.227 345.754 354.728 345.616C354.229 345.479 353.705 345.447 353.192 345.524C352.679 345.6 352.19 345.781 351.758 346.057C350.534 346.63 349.238 347.053 347.902 347.314C346.857 347.698 345.699 347.694 344.658 347.302C343.617 346.91 342.767 346.159 342.278 345.198C342.061 344.615 341.973 343.996 342.019 343.378C342.065 342.762 342.245 342.16 342.547 341.613C342.849 341.065 343.266 340.583 343.773 340.197C344.28 339.812 344.865 339.53 345.492 339.371C347.561 338.714 349.769 338.555 351.919 338.911C354.92 339.526 358.052 339.136 360.788 337.807C363.584 336.642 366.476 335.66 369.239 334.434C370.07 334.227 370.834 333.831 371.469 333.28C372.103 332.729 372.588 332.04 372.882 331.271C373.176 330.502 373.27 329.677 373.156 328.865C373.042 328.054 372.724 327.281 372.228 326.613C371.777 325.732 371.261 324.881 370.685 324.068C365.607 316.198 361.242 307.929 357.639 299.349C354.948 293.474 354.527 286.878 356.45 280.734C358.006 275.612 359.081 270.367 359.663 265.063C360.31 262.014 360.2 258.863 359.342 255.863C357.455 250.143 354.74 244.703 351.276 239.701C345.684 232.494 338.422 226.606 328.524 225.226C327.397 225.041 326.245 225.041 325.118 225.226C321.455 225.839 317.888 226.759 314.224 227.249C311.364 227.587 308.44 227.249 305.548 227.556C304.937 227.679 304.134 228.445 303.298 228.875H303.362ZM229.13 178.825C222.336 172.772 214.78 167.549 206.635 163.276C205.852 162.966 205.047 162.71 204.225 162.51C192.869 158.762 180.682 157.917 168.877 160.056C162.363 160.807 156.2 163.285 151.088 167.21C145.976 171.134 142.119 176.348 139.955 182.26C135.149 194.825 133.051 208.187 133.785 221.545C133.715 222.604 134.062 223.65 134.757 224.478C135.453 225.306 136.447 225.857 137.545 226.023C139.722 226.508 141.868 227.112 143.972 227.832C146.306 228.623 148.304 230.122 149.662 232.099C151.02 234.076 151.662 236.422 151.492 238.781C151.639 242.848 150.593 246.874 148.471 250.404C147.057 252.796 145.675 255.218 144.454 257.733C142.14 262.548 142.783 264.48 147.507 267.424C148.683 268.005 149.72 268.811 150.556 269.791C151.391 270.772 152.006 271.906 152.361 273.123C152.717 274.34 152.806 275.614 152.624 276.866C152.441 278.117 151.99 279.319 151.299 280.397L149.017 285.089C155.798 284.599 160.393 287.665 164.763 291.222C166.467 292.572 168.138 293.952 169.905 295.21C172.315 296.927 174.918 298.276 177.296 300.208C178.125 301.082 178.838 302.05 179.417 303.091C178.327 303.709 177.13 304.135 175.882 304.349C174.057 304.18 172.251 303.862 170.484 303.398C168.652 312.936 168.652 312.936 160.297 317.075C161.332 319.632 161.734 322.382 161.472 325.111C161.21 327.84 160.291 330.474 158.786 332.808C155.958 337.378 157.372 339.279 162.578 341.855C173.086 347.008 183.434 343.266 193.974 342.438C193.974 337.347 193.974 332.839 193.974 328.3C194.231 318.732 194.585 309.194 194.938 299.626C195.195 293.308 195.485 287.021 195.838 280.703C196.224 273.589 196.577 266.443 197.188 259.236C197.509 255.556 198.345 251.906 199.02 247.889C194.52 247.889 190.311 247.889 186.165 247.889C184.886 247.99 183.6 247.807 182.407 247.355C181.214 246.903 180.147 246.193 179.288 245.282C176.415 242.583 174.408 239.157 173.504 235.407C173.383 233.132 172.563 230.942 171.146 229.109C169.728 227.277 167.777 225.883 165.534 225.103C163.574 224.489 163.285 223.048 163.928 221.146C165.751 216.561 168.973 212.602 173.178 209.782C177.383 206.961 182.376 205.407 187.515 205.322C192.594 205.728 197.647 206.393 202.651 207.315C205.125 207.714 207.535 208.358 209.656 208.818L229.13 178.825ZM311.846 207.407C320.908 208.297 322.451 207.254 324.186 199.71C325.729 193.145 329.699 187.331 335.369 183.333C350.183 172.17 355.903 157.449 353.526 139.815C352.904 133.356 350.493 127.171 346.54 121.895C342.587 116.619 337.234 112.442 331.031 109.792C321.776 105.319 311.445 103.263 301.088 103.834C290.731 104.405 280.717 107.582 272.063 113.042C265.105 117.251 259.654 123.381 256.433 130.617C253.213 137.853 252.377 145.854 254.035 153.555C255.812 161.694 259.59 169.315 265.057 175.789C268.689 180.328 272.513 184.682 276.24 189.099C281.487 194.778 284.227 202.174 283.889 209.738C283.906 211.288 284.035 212.836 284.274 214.369H297.45C296.743 195.968 295.2 178.212 292.887 160.393C291.215 159.566 289.673 158.921 288.227 158.094C285.963 156.928 284.132 155.125 282.981 152.929C281.831 150.734 281.419 148.253 281.8 145.826C282.386 144.024 283.584 142.46 285.206 141.38C287.134 140.061 289.287 141.38 290.637 142.729C292.002 144.359 293.156 146.14 294.075 148.035C294.975 149.721 295.586 151.561 296.325 153.309C299.956 151.929 301.081 149.782 299.956 146.593C299.607 145.504 299.37 144.384 299.249 143.25C298.987 142.125 299.146 140.949 299.698 139.923C300.249 138.899 301.159 138.09 302.27 137.638C303.218 137.07 304.342 136.83 305.454 136.958C306.565 137.087 307.597 137.576 308.375 138.343C309.281 139.078 309.908 140.077 310.157 141.186C310.407 142.295 310.267 143.452 309.757 144.477C308.858 146.531 307.99 148.617 306.994 150.979L312.36 154.229C313.871 150.733 314.963 147.666 316.442 144.784C316.682 144.082 317.092 143.444 317.638 142.921C318.184 142.397 318.851 142.004 319.585 141.771C320.32 141.539 321.101 141.473 321.867 141.581C322.632 141.689 323.36 141.966 323.993 142.392C324.938 143.107 325.653 144.061 326.057 145.146C326.46 146.23 326.536 147.401 326.275 148.525C326.147 150.569 325.456 152.545 324.27 154.252C323.086 155.959 321.449 157.337 319.526 158.247C318.518 158.635 317.654 159.299 317.042 160.157C316.43 161.013 316.098 162.024 316.088 163.062C315.413 170.023 314.417 176.954 313.71 183.885C313.131 191.614 312.392 199.373 311.782 207.407H311.846ZM212.034 218.846C212.034 219.491 211.681 219.951 211.809 220.073C215.794 224.152 215.73 229.274 215.441 234.211C215.183 238.229 214.091 241.51 209.753 243.043C207.764 243.765 206.068 245.073 204.912 246.777C203.756 248.481 203.2 250.493 203.326 252.52C202.554 262.855 201.205 273.159 200.723 283.525C199.887 301.19 199.534 318.885 199.02 336.55C199.02 337.807 199.212 339.064 199.309 340.291C214.477 340.291 226.109 333.881 236.393 323.853C229.684 314.585 226.302 303.491 226.752 292.234L221.707 293.523C219.256 294.199 216.767 294.741 214.252 295.148C212.776 295.394 211.258 295.25 209.862 294.73C208.466 294.21 207.246 293.335 206.335 292.2C205.424 291.065 204.857 289.714 204.694 288.292C204.532 286.871 204.781 285.434 205.414 284.138C206.074 282.639 206.95 281.235 208.017 279.968C214.444 272.301 220.871 264.45 227.781 257.089C230.103 254.382 233.054 252.229 236.402 250.802C239.749 249.376 243.399 248.714 247.061 248.87C247.987 248.971 248.924 248.84 249.78 248.491C250.637 248.141 251.383 247.585 251.946 246.877C252.803 245.86 253.773 244.934 254.838 244.117C256.07 243.242 257 242.036 257.51 240.654C258.019 239.272 258.085 237.776 257.698 236.358C256.542 230.224 255.513 224.091 254.485 218.141C252.364 206.395 245.68 196.888 238.128 187.811C236.589 186.135 234.947 184.548 233.211 183.057C226.459 191.894 220.411 201.202 215.119 210.904C217.754 212.989 219.972 214.737 222.125 216.547C222.915 217.049 223.478 217.818 223.698 218.7C223.919 219.582 223.781 220.511 223.314 221.3C222.814 222.083 222.011 222.647 221.08 222.87C220.148 223.094 219.161 222.96 218.333 222.496C216.121 221.43 213.994 220.21 211.97 218.846H212.034ZM364.226 300.607C369.304 291.683 374.124 283.678 378.43 275.429C384.504 263.836 388.81 251.753 387.203 238.627C386.771 234.617 385.866 230.667 384.504 226.851C378.527 211.179 368.243 198.084 356.675 185.848C354.2 183.241 351.437 180.88 348.641 178.273C343.21 182.965 337.972 187.136 333.313 191.767C331.357 193.806 330.092 196.36 329.681 199.096C329.592 202.019 328.604 204.852 326.837 207.241C325.071 209.63 322.607 211.469 319.751 212.529C328.107 213.204 328.717 213.725 329.649 220.901C335.873 221.512 341.685 224.155 346.102 228.384C349.897 231.107 353.291 234.305 356.193 237.891C360.82 243.942 363.781 251.004 364.803 258.431C365.825 265.858 364.875 273.411 362.041 280.397C360.822 283.708 360.379 287.235 360.746 290.727C361.112 294.22 362.279 297.592 364.162 300.607H364.226ZM290.83 219.797C289.062 219.644 287.263 219.613 285.495 219.337C284.555 219.321 283.629 219.113 282.779 218.728C281.929 218.343 281.175 217.79 280.567 217.105C279.959 216.42 279.511 215.62 279.252 214.757C278.994 213.893 278.931 212.988 279.068 212.099C279.068 210.965 279.068 209.799 279.068 208.695C279.412 203.775 277.87 198.903 274.73 194.987C272.93 192.626 270.938 190.387 268.914 188.209C262.524 181.665 257.116 174.306 252.846 166.343C252.846 166.098 252.3 166.006 251.4 165.515L236.168 179.193C253.617 194.527 260.109 214.553 262.936 236.572C270.994 229.323 280.444 223.627 290.766 219.797H290.83ZM199.277 345.198C199.616 351.604 201.318 357.876 204.28 363.633C207.241 369.391 211.399 374.513 216.501 378.687C225.306 385.864 234.4 392.703 243.398 399.634C244.804 400.585 246.274 401.446 247.801 402.21C247.84 401.114 247.502 400.037 246.836 399.143C243.816 394.083 239.349 389.943 237.196 384.238C232.774 371.923 230.95 358.895 231.829 345.904C232.183 340.813 233.436 336.366 238.707 333.82C240.175 332.909 241.561 331.883 242.852 330.753L237.967 327.687C228.423 340.23 214.541 343.665 199.277 345.198ZM240.217 321.032C247.221 314.246 251.731 305.476 253.071 296.037C253.573 292.522 254.303 289.04 255.256 285.611C256.378 281.614 256.662 277.445 256.092 273.343C249.841 279.146 242.604 283.895 234.69 287.389C233.642 287.727 232.76 288.418 232.21 289.333C231.659 290.248 231.478 291.324 231.701 292.357C232.151 296.712 232.279 301.098 232.922 305.422C234.177 311.057 236.662 316.376 240.217 321.032ZM245.873 252.918C242.732 253.131 239.675 253.979 236.904 255.407C234.134 256.835 231.714 258.809 229.805 261.199C223.378 268.283 217.497 275.858 211.424 283.249C210.925 283.908 210.505 284.618 210.17 285.365C208.531 288.677 209.464 290.579 213.384 290.425C216.734 290.054 220.031 289.334 223.217 288.278C224.682 287.861 226.017 287.109 227.109 286.088C228.2 285.068 229.016 283.809 229.484 282.421C231.082 278.323 233.243 274.445 235.911 270.89C240.281 265.584 242.081 259.144 245.873 252.918ZM304.294 154.628C299.217 156.499 297.867 159.841 298.478 164.687C299.731 176.31 300.535 187.964 301.691 199.618C302.109 204.249 302.688 208.818 303.234 213.786L310.496 213.234L306.544 211.21C306.544 209.523 306.544 207.745 306.865 205.966C308.279 192.227 309.532 178.365 311.268 164.81C311.759 163.184 311.636 161.445 310.919 159.898C310.202 158.35 308.938 157.093 307.347 156.345C306.158 155.824 305.194 155.18 304.294 154.628ZM142.59 314.101C148.778 314.021 154.89 312.792 160.586 310.482C164.281 309.347 165.053 308.243 164.731 305.422C164.722 303.954 164.141 302.541 163.102 301.459C162.063 300.376 160.639 299.701 159.108 299.564C153.612 298.982 148.921 301.466 144.197 303.52C143.436 303.993 142.794 304.62 142.316 305.357C141.838 306.094 141.537 306.922 141.433 307.783C141.503 309.931 141.893 312.058 142.59 314.101ZM250.661 255.28C249.199 257.201 247.939 259.256 246.901 261.413C245.398 265.543 243.086 269.363 240.088 272.669C238.08 275.367 236.306 278.219 234.786 281.194L235.814 282.022C242.25 279.022 248.013 274.855 252.782 269.755C256.317 265.462 255.417 260.34 250.661 255.28ZM204.579 222.987C201.457 221.478 198.014 220.675 194.515 220.637C191.016 220.6 187.555 221.331 184.398 222.772C182.735 223.451 181.371 224.661 180.539 226.193C179.707 227.726 179.458 229.487 179.835 231.175C191.339 227.372 192.689 227.158 202.908 227.955L204.579 222.987ZM343.403 374.639C348.448 376.387 352.497 377.982 356.643 379.178C362.074 380.742 363.745 379.393 363.648 373.873C363.546 372.839 363.363 371.814 363.102 370.806C356.514 370.837 350.183 370.744 343.403 374.547V374.639ZM252.139 332.624C257.152 339.095 262.968 341.211 269.331 338.758C268.335 337.439 267.692 335.691 266.471 335.139C262.165 332.9 257.763 330.355 252.139 332.532V332.624ZM142.076 296.896C145.514 296.13 148.342 295.363 151.267 294.903C154.191 294.443 157.244 294.289 160.393 293.983C155.123 290.088 154.319 289.781 148.728 289.597C144.004 289.444 142.365 291.008 142.076 296.896ZM303.812 237.554C306.686 239.135 310.053 239.695 313.318 239.133C316.582 238.572 319.533 236.926 321.647 234.487C316.827 231.42 312.2 234.334 307.636 234.794C305.965 234.947 303.555 234.794 303.78 237.554H303.812ZM188.383 216.424C194.039 215.749 199.052 215.197 203.872 217.405C205.093 217.988 206.539 218.172 207.246 216.516C207.953 214.86 206.764 213.848 205.286 213.234C202.5 211.864 199.31 211.433 196.236 212.011C193.161 212.591 190.382 214.146 188.351 216.424H188.383ZM189.186 242.706L187.547 234.364C182.952 234.855 180.67 236.388 181.12 238.781C181.313 242.062 184.076 243.35 189.154 242.706H189.186ZM187.483 210.904C185.367 210.544 183.193 210.633 181.117 211.162C179.04 211.692 177.111 212.651 175.464 213.97C173.601 215.35 171.255 216.547 170.869 219.736C171.65 219.565 172.414 219.33 173.151 219.031L187.483 210.904ZM297.996 226.881C292.372 225.041 290.798 225.287 287.712 228.538C289.067 229.751 290.715 230.624 292.51 231.079C294.304 231.534 296.19 231.556 297.996 231.144V226.881ZM192.978 233.628L193.878 239.026C199.855 238.719 200.948 238.198 200.787 235.959C200.626 233.72 198.762 232.984 192.946 233.628H192.978ZM304.937 250.526C310.496 253.225 314.031 253.103 317.791 250.189C313.525 249.361 309.117 249.476 304.905 250.526H304.937ZM298.51 245.926L297.996 242.185C295.136 243.197 292.372 242.185 289.48 244.178C290.671 245.245 292.141 245.985 293.737 246.32C295.332 246.654 296.992 246.571 298.542 246.079L298.51 245.926ZM349.38 367.555L357.703 366.236C354.489 364.611 351.501 364.151 349.412 367.555H349.38ZM294.236 422.266C295.94 423.467 297.901 424.293 299.979 424.685C302.057 425.078 304.2 425.027 306.254 424.536L294.236 422.266ZM291.312 154.291C290.412 150.794 289.994 148.157 286.941 146.409C286.739 147.995 287.054 149.602 287.841 151.012C288.629 152.422 289.852 153.566 291.344 154.291H291.312ZM210.235 226.329C207.664 229.795 207.664 229.795 210.685 230.96L210.235 226.329ZM257.088 254.943V248.349L253.874 251.017L257.088 254.943ZM312.714 221.821V222.097H315.092V221.821H312.714ZM176.493 223.6C175.593 224.121 172.958 223.14 174.436 225.747C174.822 225.563 175.304 225.501 175.561 225.195C175.927 224.689 176.249 224.156 176.525 223.6H176.493Z" fill="#115353"></path><path d="M321.202 299.564V300.055C321.202 308.121 320.399 308.888 311.562 308.213C305.285 307.722 299.149 306.176 293.437 303.643C291.262 302.827 288.925 302.481 286.593 302.631C283.379 302.631 280.166 303.183 276.952 303.551C275.069 303.81 273.149 303.451 271.508 302.531C269.867 301.612 268.603 300.187 267.922 298.491C266.889 296.782 266.424 294.814 266.591 292.848C266.757 290.881 267.547 289.009 268.854 287.481C270.981 285.162 273.398 283.102 276.053 281.348C280.937 278.127 286.111 275.214 291.156 272.147C292.815 271.131 294.676 270.454 296.623 270.158C298.57 269.862 300.56 269.955 302.468 270.43C311.466 272.21 320.076 275.458 327.919 280.029C331.421 282.237 332.932 285.396 331.55 287.665C330.168 289.935 325.637 290.272 322.231 288.401C321.781 288.172 321.361 287.894 320.977 287.573C308.381 277.023 294.562 278.373 280.519 284.108C278.006 285.456 275.685 287.105 273.61 289.015C272.556 289.862 271.848 291.037 271.613 292.333C271.378 293.629 271.63 294.963 272.325 296.099C272.774 297.152 273.585 298.029 274.624 298.585C275.663 299.142 276.868 299.347 278.045 299.166C281.47 299.366 284.867 298.458 287.685 296.59C292.024 293.523 296.619 290.671 301.182 287.819C302.756 286.758 304.56 286.049 306.459 285.743C308.359 285.437 310.307 285.543 312.158 286.052C314.009 286.562 315.716 287.462 317.154 288.686C318.592 289.91 319.723 291.427 320.463 293.124C320.991 295.128 321.219 297.193 321.138 299.258L321.202 299.564ZM316.511 299.196L315.707 298.491C314.844 299.953 313.43 301.046 311.752 301.547C310.075 302.049 308.26 301.921 306.677 301.19C303.847 299.462 301.256 297.401 298.965 295.056L293.212 298.767C300.18 302.113 307.911 303.746 315.707 303.52L316.511 299.196ZM305.135 291.376C305.392 294.688 306.002 295.823 307.641 296.467C308.017 296.638 308.427 296.728 308.843 296.73C309.259 296.732 309.671 296.647 310.048 296.48C310.426 296.313 310.76 296.069 311.027 295.764C311.294 295.46 311.488 295.103 311.594 294.719C312.14 292.94 311.208 291.959 309.441 291.652C308.348 291.499 306.934 291.499 305.135 291.376ZM295.88 275.735H304.621C301.375 275.153 299.254 273.159 295.944 275.735H295.88Z" fill="#115353"></path><path d="M56.6027 274.794C56.4834 273.038 55.9785 271.802 55.088 271.088C54.1975 270.373 53.0007 270.067 51.4975 270.169C50.8323 270.214 50.2338 270.355 49.702 270.592C49.1701 270.828 48.7253 271.166 48.3676 271.605C47.9956 272.031 47.7245 272.564 47.5541 273.203C47.3828 273.83 47.3261 274.569 47.384 275.42L47.6226 278.932L56.8414 278.306L56.6027 274.794ZM42.3356 275.763C42.1964 273.715 42.3232 271.942 42.716 270.445C43.0945 268.936 43.6774 267.68 44.4646 266.678C45.2509 265.662 46.2073 264.889 47.3339 264.358C48.4605 263.827 49.6956 263.516 51.0392 263.425C52.4892 263.326 53.8352 263.469 55.0774 263.852C56.3196 264.235 57.4056 264.876 58.3353 265.775C59.2651 266.675 60.0262 267.846 60.6188 269.289C61.1971 270.72 61.5545 272.439 61.691 274.448L61.9296 277.96L71.6472 277.3L72.1055 284.044L43.0325 286.019L42.3356 275.763Z" fill="#115353"></path><path d="M56.2457 243.095C56.327 242.179 56.2831 241.392 56.1138 240.734C55.9325 240.062 55.6542 239.502 55.2791 239.054C54.9039 238.606 54.4523 238.265 53.9242 238.03C53.3829 237.795 52.7935 237.649 52.156 237.592C50.881 237.479 49.8478 237.809 49.0564 238.582C48.2662 239.342 47.7939 240.592 47.6395 242.332L47.3991 245.041L56.0053 245.805L56.2457 243.095ZM72.8943 230.156L72.3535 236.252C72.2533 237.381 71.7565 238.153 70.8629 238.569L62.0082 242.643C61.6296 242.837 61.3483 243.066 61.1641 243.331C60.9667 243.594 60.8451 243.985 60.7991 244.503L60.6471 246.216L71.3849 247.169L70.7875 253.903L41.7615 251.328L42.5993 241.885C42.7855 239.786 43.1631 238.019 43.7322 236.584C44.2891 235.134 44.994 233.979 45.8468 233.117C46.7008 232.243 47.6712 231.639 48.7581 231.307C49.845 230.976 51.0061 230.864 52.2412 230.974C53.1842 231.058 54.0628 231.263 54.8772 231.589C55.6915 231.916 56.4354 232.357 57.109 232.912C57.7693 233.466 58.346 234.132 58.839 234.912C59.3332 235.679 59.7177 236.55 59.9927 237.525C60.2573 237.106 60.5794 236.72 60.9589 236.365C61.3251 236.01 61.7541 235.7 62.2461 235.436L72.8943 230.156Z" fill="#115353"></path><path d="M67.4513 191.578C69.4859 192.124 71.2839 192.986 72.8452 194.164C74.4099 195.33 75.6716 196.724 76.6301 198.348C77.5757 199.969 78.1736 201.779 78.4238 203.779C78.6774 205.766 78.5105 207.854 77.923 210.043C77.3355 212.232 76.4328 214.13 75.2149 215.736C73.9971 217.342 72.5715 218.616 70.9381 219.558C69.2953 220.484 67.5032 221.066 65.5618 221.304C63.6238 221.529 61.6375 221.369 59.6028 220.823C57.5681 220.277 55.7684 219.421 54.2037 218.256C52.6424 217.077 51.3889 215.678 50.4433 214.058C49.5011 212.424 48.9049 210.608 48.6548 208.608C48.4046 206.608 48.5732 204.513 49.1607 202.324C49.7482 200.135 50.6556 198.246 51.8829 196.656C53.1008 195.05 54.5247 193.783 56.1546 192.853C57.7845 191.924 59.5684 191.347 61.5064 191.121C63.4479 190.883 65.4295 191.035 67.4513 191.578ZM65.6576 198.261C64.2668 197.888 62.9693 197.733 61.7651 197.796C60.5479 197.856 59.4615 198.124 58.5056 198.599C57.5533 199.061 56.7397 199.726 56.065 200.595C55.3902 201.463 54.8853 202.521 54.55 203.77C54.2114 205.032 54.115 206.215 54.261 207.317C54.4104 208.406 54.7799 209.396 55.3694 210.285C55.9623 211.162 56.7706 211.932 57.7942 212.593C58.8049 213.251 60.0056 213.766 61.3964 214.139C62.8001 214.516 64.1105 214.674 65.3276 214.615C66.5319 214.551 67.6102 214.288 68.5625 213.826C69.5184 213.351 70.3336 212.679 71.0084 211.811C71.6737 210.927 72.1757 209.854 72.5144 208.592C72.8496 207.342 72.9489 206.175 72.8124 205.089C72.663 204 72.2918 203.017 71.6988 202.14C71.1093 201.25 70.3092 200.476 69.2985 199.818C68.2749 199.157 67.0613 198.638 65.6576 198.261Z" fill="#115353"></path><path d="M82.9092 157.337C84.81 158.245 86.4082 159.415 87.7041 160.848C88.9936 162.262 89.9433 163.846 90.553 165.601C91.1508 167.349 91.378 169.224 91.2348 171.224C91.0852 173.207 90.5218 175.221 89.5444 177.266L84.6632 187.479L58.3715 174.914L63.2526 164.701C64.23 162.656 65.4491 160.955 66.9099 159.599C68.3765 158.231 69.9778 157.23 71.7139 156.597C73.45 155.964 75.2793 155.708 77.2018 155.828C79.118 155.931 81.0205 156.434 82.9092 157.337ZM79.9253 163.58C78.6261 162.96 77.3726 162.567 76.165 162.404C74.9574 162.241 73.8404 162.305 72.8139 162.598C71.7811 162.873 70.8537 163.375 70.0318 164.106C69.1978 164.83 68.502 165.776 67.9444 166.943L65.9953 171.021L82.9036 179.102L84.8527 175.024C85.4103 173.857 85.7152 172.724 85.7672 171.626C85.8071 170.522 85.6157 169.485 85.1928 168.514C84.7637 167.526 84.1063 166.613 83.2207 165.776C82.335 164.939 81.2366 164.207 79.9253 163.58Z" fill="#115353"></path><path d="M103.338 143.242C103.867 142.505 104.218 141.764 104.391 141.019C104.561 140.255 104.563 139.509 104.395 138.782C104.227 138.055 103.892 137.355 103.39 136.683C102.884 135.992 102.214 135.348 101.38 134.75L87.3521 124.693L91.2909 119.199L105.318 129.256C106.77 130.297 107.932 131.491 108.804 132.838C109.684 134.174 110.248 135.595 110.496 137.102C110.745 138.609 110.662 140.166 110.249 141.773C109.835 143.379 109.065 144.968 107.938 146.54C106.804 148.122 105.543 149.366 104.154 150.274C102.765 151.181 101.317 151.759 99.8101 152.008C98.3031 152.256 96.7757 152.178 95.228 151.774C93.6803 151.37 92.1804 150.647 90.7284 149.606L76.701 139.549L80.6398 134.055L94.6509 144.101C95.4853 144.699 96.3068 145.132 97.1154 145.4C97.921 145.649 98.7005 145.741 99.4539 145.674C100.196 145.599 100.898 145.364 101.559 144.968C102.217 144.554 102.81 143.979 103.338 143.242Z" fill="#115353"></path><path d="M129.834 109.874C129.947 109.761 130.084 109.672 130.245 109.606C130.396 109.531 130.575 109.494 130.783 109.495L134.671 109.605C134.92 111.519 134.694 113.381 133.991 115.189C133.288 116.978 132.081 118.724 130.369 120.425C128.8 121.986 127.128 123.122 125.353 123.833C123.579 124.526 121.791 124.837 119.991 124.766C118.19 124.676 116.419 124.218 114.677 123.393C112.926 122.558 111.298 121.384 109.794 119.871C108.262 118.33 107.107 116.668 106.329 114.883C105.543 113.09 105.138 111.274 105.115 109.435C105.092 107.597 105.455 105.787 106.205 104.008C106.955 102.228 108.091 100.581 109.613 99.0677C110.389 98.2968 111.187 97.6439 112.009 97.1088C112.831 96.5549 113.662 96.1047 114.502 95.7583C115.333 95.4024 116.168 95.1455 117.007 94.9877C117.847 94.8298 118.658 94.7567 119.44 94.7684L119.981 98.5459C120.009 98.7817 120.008 99.0268 119.979 99.2813C119.941 99.5263 119.794 99.7757 119.538 100.03C119.368 100.199 119.17 100.321 118.943 100.396C118.717 100.47 118.467 100.54 118.193 100.606C117.91 100.661 117.604 100.731 117.273 100.815C116.943 100.88 116.585 101.002 116.198 101.18C115.811 101.339 115.39 101.569 114.937 101.869C114.493 102.16 114.02 102.555 113.519 103.053C112.725 103.843 112.143 104.713 111.772 105.664C111.411 106.606 111.272 107.6 111.354 108.647C111.436 109.675 111.753 110.732 112.306 111.818C112.859 112.885 113.658 113.943 114.701 114.992C115.754 116.051 116.831 116.851 117.933 117.392C119.044 117.923 120.127 118.228 121.183 118.306C122.239 118.366 123.243 118.213 124.197 117.848C125.15 117.483 126.005 116.924 126.761 116.172C127.196 115.74 127.574 115.326 127.896 114.931C128.208 114.527 128.474 114.122 128.692 113.717C128.9 113.303 129.062 112.879 129.176 112.446C129.281 112.003 129.348 111.513 129.378 110.976C129.398 110.768 129.445 110.57 129.521 110.382C129.588 110.184 129.692 110.015 129.834 109.874Z" fill="#115353"></path><path d="M146.862 76.1377L140.23 80.9599L154.214 100.193L148.747 104.169L134.762 84.9353L128.13 89.7576L124.978 85.4224L143.71 71.8025L146.862 76.1377Z" fill="#115353"></path><path d="M171.424 63.0904C171.396 63.4667 171.319 63.7785 171.193 64.0257C171.079 64.2666 170.869 64.4679 170.562 64.6294C170.291 64.7724 169.952 64.8451 169.547 64.8477C169.147 64.8323 168.69 64.824 168.178 64.8229C167.676 64.8156 167.129 64.863 166.534 64.965C165.934 65.0552 165.309 65.2711 164.66 65.6129C163.54 66.2031 162.829 66.8861 162.53 67.6618C162.236 68.4195 162.303 69.2054 162.732 70.0194C163.005 70.5384 163.397 70.8821 163.907 71.0502C164.418 71.2184 165.004 71.2865 165.665 71.2546C166.338 71.2166 167.073 71.1235 167.869 70.9755C168.671 70.8095 169.5 70.6667 170.356 70.5473C171.206 70.416 172.063 70.3413 172.928 70.323C173.804 70.2985 174.647 70.412 175.458 70.6632C176.28 70.9083 177.058 71.3273 177.793 71.9201C178.52 72.5012 179.167 73.3285 179.733 74.402C180.36 75.5935 180.741 76.8171 180.875 78.0727C181.009 79.3283 180.885 80.5536 180.505 81.7485C180.13 82.9254 179.483 84.0424 178.563 85.0996C177.648 86.1388 176.46 87.0436 174.997 87.814C174.195 88.2365 173.331 88.5857 172.407 88.8617C171.494 89.1315 170.57 89.3239 169.637 89.4391C168.696 89.5424 167.775 89.5678 166.874 89.5153C165.972 89.4628 165.134 89.3164 164.36 89.0763L164.657 85.3484C164.693 85.0733 164.788 84.8118 164.944 84.564C165.106 84.2982 165.322 84.0938 165.593 83.9509C165.947 83.7645 166.36 83.6902 166.832 83.7279C167.316 83.7595 167.853 83.7929 168.445 83.8281C169.048 83.8571 169.703 83.8284 170.411 83.7419C171.119 83.6553 171.874 83.4008 172.676 82.9783C173.761 82.4067 174.481 81.7265 174.834 80.9378C175.181 80.1372 175.081 79.2179 174.534 78.1797C174.217 77.5781 173.794 77.1755 173.265 76.9719C172.736 76.7684 172.135 76.6856 171.462 76.7237C170.8 76.7556 170.078 76.8573 169.294 77.0289C168.51 77.2005 167.7 77.3637 166.862 77.5186C166.018 77.6617 165.167 77.7482 164.309 77.7783C163.444 77.7965 162.598 77.6772 161.77 77.4203C160.947 77.1455 160.156 76.688 159.397 76.048C158.631 75.3961 157.932 74.4686 157.298 73.2653C156.789 72.2979 156.486 71.2516 156.391 70.1264C156.296 69.0012 156.436 67.8799 156.812 66.7626C157.188 65.6454 157.813 64.5855 158.686 63.5829C159.553 62.5686 160.695 61.6887 162.111 60.9431C162.901 60.5268 163.702 60.1878 164.514 59.9261C165.331 59.6465 166.141 59.4534 166.944 59.347C167.74 59.2288 168.518 59.1885 169.276 59.2262C170.04 59.2459 170.764 59.3469 171.447 59.5293L171.424 63.0904Z" fill="#115353"></path><path d="M215.869 66.0195C216.732 65.7886 217.405 65.4914 217.887 65.1277C218.383 64.7605 218.738 64.3617 218.955 63.9312C219.171 63.5008 219.278 63.051 219.277 62.5821C219.276 62.1132 219.215 61.6533 219.094 61.2025C218.956 60.6872 218.761 60.2425 218.509 59.8682C218.27 59.4905 217.945 59.2048 217.535 59.011C217.137 58.8138 216.647 58.7103 216.064 58.7005C215.482 58.6906 214.779 58.796 213.954 59.0165L209.395 60.2364L211.271 67.2498L215.869 66.0195ZM206.366 48.9146L208.227 55.87L211.627 54.9602C212.348 54.7673 212.985 54.5417 213.537 54.2836C214.089 54.0255 214.53 53.7142 214.861 53.3498C215.204 52.9819 215.418 52.545 215.504 52.039C215.602 51.5297 215.56 50.9336 215.377 50.251C215.198 49.5812 214.966 49.0497 214.682 48.6566C214.393 48.2506 214.039 47.9589 213.619 47.7814C213.199 47.604 212.703 47.5297 212.131 47.5585C211.572 47.5838 210.925 47.6947 210.191 47.8912L206.366 48.9146ZM208.883 43.0031C210.828 42.4827 212.532 42.2202 213.993 42.2156C215.455 42.211 216.706 42.4217 217.744 42.8477C218.783 43.2737 219.621 43.9051 220.259 44.742C220.91 45.5754 221.391 46.5718 221.701 47.731C221.87 48.3621 221.943 48.9981 221.921 49.6388C221.896 50.2667 221.759 50.8899 221.511 51.5085C221.259 52.1142 220.887 52.7106 220.395 53.2976C219.903 53.8846 219.274 54.4464 218.507 54.983C220.482 54.9375 222.048 55.2983 223.206 56.0652C224.363 56.8321 225.156 58.0141 225.583 59.6112C225.904 60.8091 225.97 61.9853 225.782 63.1398C225.594 64.2943 225.152 65.3785 224.458 66.3926C223.772 67.3903 222.831 68.2838 221.635 69.0733C220.434 69.8498 218.991 70.4638 217.303 70.9152L206.059 73.9236L198.528 45.7737L208.883 43.0031Z" fill="#115353"></path><path d="M249.1 54.1744L250.235 65.1962L243.51 65.8886L242.375 54.8668L230.021 37.9834L235.95 37.373C236.533 37.3129 237.005 37.405 237.365 37.6494C237.738 37.8792 238.058 38.1947 238.327 38.5959L243.294 46.6093C243.707 47.2369 244.083 47.8282 244.422 48.3831C244.759 48.9248 245.063 49.4632 245.332 49.9984C245.472 49.4076 245.639 48.814 245.832 48.2178C246.038 47.6069 246.279 46.9587 246.557 46.2733L249.747 37.42C249.822 37.238 249.917 37.054 250.032 36.8679C250.147 36.6819 250.284 36.5136 250.442 36.3632C250.613 36.1982 250.807 36.0643 251.024 35.9615C251.254 35.8441 251.507 35.771 251.786 35.7424L257.754 35.1278L249.1 54.1744Z" fill="#115353"></path><path d="M325.957 42.1849L312.147 69.3773L306.116 68.3397L303.777 49.6121C303.719 49.3181 303.673 48.9989 303.637 48.6546C303.604 48.2971 303.573 47.9265 303.544 47.5427C303.389 47.8948 303.236 48.2338 303.085 48.5596C302.937 48.8723 302.786 49.1576 302.634 49.4154L294.092 66.2714L288.061 65.2339L284.131 34.9899L289.729 35.9528C290.307 36.0523 290.764 36.2662 291.1 36.5946C291.449 36.9252 291.646 37.3175 291.689 37.7714L293.054 53.4296C293.091 53.9229 293.12 54.4623 293.141 55.0477C293.165 55.6199 293.183 56.2185 293.198 56.8433C293.647 55.6488 294.125 54.6013 294.631 53.7008L301.86 39.521C302.041 39.1735 302.348 38.8879 302.778 38.6644C303.225 38.4299 303.724 38.3602 304.276 38.4551L306.247 38.7942C306.825 38.8937 307.268 39.1119 307.575 39.4489C307.884 39.7727 308.095 40.1607 308.207 40.6128L310.242 56.3862C310.425 57.3648 310.535 58.4592 310.57 59.6694C310.777 59.0962 310.977 58.5623 311.17 58.068C311.379 57.5627 311.582 57.0903 311.779 56.6507L318.298 42.3489C318.469 41.9859 318.776 41.6938 319.22 41.4725C319.664 41.2512 320.162 41.188 320.714 41.283L325.957 42.1849Z" fill="#115353"></path><path d="M359.77 70.8312C358.981 72.7846 357.908 74.4647 356.549 75.8716C355.202 77.2835 353.665 78.3666 351.937 79.1211C350.213 79.8632 348.344 80.2372 346.329 80.243C344.325 80.2538 342.273 79.8349 340.171 78.9862C338.069 78.1375 336.295 77.0114 334.849 75.6078C333.403 74.2041 332.311 72.6346 331.574 70.899C330.854 69.156 330.494 67.3066 330.493 65.3506C330.504 63.3996 330.904 61.4473 331.693 59.4939C332.481 57.5405 333.549 55.8578 334.896 54.446C336.255 53.0391 337.796 51.9646 339.519 51.2225C341.254 50.4854 343.13 50.1139 345.145 50.1081C347.161 50.1023 349.219 50.5237 351.321 51.3724C353.423 52.221 355.188 53.3509 356.617 54.7619C358.064 56.1655 359.149 57.7326 359.874 59.4632C360.599 61.1937 360.956 63.0345 360.944 64.9855C360.945 66.9416 360.554 68.8901 359.77 70.8312ZM353.354 68.2402C353.893 66.905 354.204 65.6358 354.287 64.4328C354.375 63.2174 354.241 62.1065 353.886 61.1001C353.542 60.0987 352.981 59.2104 352.201 58.4354C351.421 57.6604 350.431 57.0307 349.232 56.5465C348.02 56.0572 346.859 55.8182 345.747 55.8295C344.648 55.8457 343.621 56.0924 342.666 56.5697C341.723 57.0519 340.862 57.7609 340.081 58.6967C339.306 59.6202 338.649 60.7496 338.109 62.0848C337.565 63.4325 337.249 64.714 337.161 65.9294C337.078 67.1324 337.208 68.2346 337.551 69.2361C337.907 70.2424 338.475 71.1332 339.255 71.9082C340.052 72.6759 341.056 73.3043 342.268 73.7936C343.467 74.2778 344.614 74.518 345.708 74.5141C346.808 74.4979 347.829 74.2487 348.771 73.7665C349.726 73.2892 350.591 72.5889 351.367 71.6654C352.147 70.7296 352.809 69.5878 353.354 68.2402Z" fill="#115353"></path><path d="M405.238 82.0036L389.092 106.262L384.13 102.96L393.417 89.0074C393.631 88.6855 393.869 88.3395 394.131 87.9695C394.405 87.6069 394.693 87.2461 394.996 86.8872L380.253 95.0691C379.794 95.3246 379.327 95.4378 378.85 95.4085C378.384 95.3867 377.934 95.2317 377.501 94.9436L376.735 94.4339C376.303 94.1457 375.981 93.7873 375.769 93.3585C375.569 92.937 375.499 92.4656 375.558 91.9441L377.436 75.1519C377.204 75.5737 376.969 75.9862 376.733 76.3895C376.504 76.7816 376.282 77.1386 376.068 77.4605L366.782 91.4127L361.82 88.1105L377.966 63.8523L382.261 66.7113C382.506 66.8738 382.713 67.0197 382.883 67.149C383.064 67.2857 383.209 67.4298 383.316 67.5814C383.423 67.7329 383.492 67.9067 383.522 68.1026C383.57 68.2949 383.579 68.5334 383.55 68.8182L381.604 85.2776C381.546 85.8472 381.465 86.426 381.362 87.014C381.27 87.6095 381.159 88.2086 381.03 88.8115C381.544 88.4487 382.056 88.1007 382.566 87.7675C383.087 87.4417 383.604 87.1454 384.118 86.8788L398.501 78.7693C398.752 78.6323 398.971 78.5452 399.155 78.5081C399.359 78.4673 399.551 78.4671 399.732 78.5077C399.914 78.5482 400.097 78.622 400.282 78.7291C400.478 78.8436 400.698 78.9821 400.942 79.1446L405.238 82.0036Z" fill="#115353"></path><path d="M418.227 100.702L413.513 105.603L420.116 111.953L416.65 115.556L410.048 109.207L405.237 114.209L413.857 122.499L410.252 126.247L396.731 113.243L416.931 92.2402L430.452 105.245L426.847 108.992L418.227 100.702Z" fill="#115353"></path><path d="M454.588 135.246L431.278 152.732L429.165 149.916C428.853 149.5 428.653 149.1 428.565 148.716C428.496 148.335 428.522 147.881 428.645 147.356L434.303 125.935C433.919 126.29 433.534 126.621 433.147 126.927C432.779 127.237 432.425 127.52 432.083 127.776L419.588 137.149L416.012 132.381L439.322 114.895L441.458 117.743C441.635 117.977 441.772 118.183 441.871 118.359C441.969 118.535 442.035 118.711 442.067 118.887C442.109 119.055 442.121 119.237 442.103 119.435C442.084 119.632 442.04 119.873 441.971 120.159L436.289 141.747C436.697 141.358 437.101 140.996 437.5 140.663C437.911 140.322 438.303 140.011 438.676 139.731L451.012 130.478L454.588 135.246Z" fill="#115353"></path><mask id="mask0" maskUnits="userSpaceOnUse" x="19" y="152" width="572" height="437"><rect x="19.623" y="324.365" width="505" height="280.909" transform="rotate(-19.935 19.623 324.365)" fill="#C4C4C4"></rect></mask><g mask="url(#mask0)"><circle cx="270" cy="270" r="211.5" stroke="#115353" stroke-width="3"></circle></g></g><defs><clipPath id="clip0"><rect width="514" height="514" fill="white"></rect></clipPath></defs></svg> 